# xmcd
#
# Track frame offsets: 
#        150
#        18689
#        40469
#        50458
#        65069
#        82466
#
# Disc length: 1271 seconds
#
# Revision: 0
# Processed by: cddbd v1.5.2PL0 Copyright (c) Steve Scherf et al.
# Submitted via: ExactAudioCopy v1.0b3
#
DISCID=5904f506
DTITLE=Old Death Whisper - Old Death Whisper
DYEAR=2011
DGENRE=Country
TTITLE0=Weep Creek
TTITLE1=Tiny Pills
TTITLE2=Wish I Was Yer Bottle
TTITLE3=Banks of the Pahsimeroi
TTITLE4=Rebels
TTITLE5=Gunslinger
EXTD=
EXTT0=
EXTT1=
EXTT2=
EXTT3=
EXTT4=
EXTT5=
PLAYORDER=
